<svg width="111" height="39" viewBox="0 0 111 39" fill="none" xmlns="http://www.w3.org/2000/svg">
<path d="M10.3594 10.5703C10.3594 11.6901 10.1615 12.6719 9.76562 13.5156C9.36979 14.3594 8.80208 15.0104 8.0625 15.4688C7.32812 15.9271 6.48438 16.1562 5.53125 16.1562C4.58854 16.1562 3.7474 15.9297 3.00781 15.4766C2.26823 15.0234 1.69531 14.3776 1.28906 13.5391C0.882812 12.6953 0.677083 11.7266 0.671875 10.6328V10.0703C0.671875 8.95052 0.872396 7.96615 1.27344 7.11719C1.67969 6.26302 2.25 5.60938 2.98438 5.15625C3.72396 4.69792 4.56771 4.46875 5.51562 4.46875C6.46354 4.46875 7.30469 4.69792 8.03906 5.15625C8.77865 5.60938 9.34896 6.26302 9.75 7.11719C10.1562 7.96615 10.3594 8.94792 10.3594 10.0625V10.5703ZM7.98438 10.0547C7.98438 8.86198 7.77083 7.95573 7.34375 7.33594C6.91667 6.71615 6.30729 6.40625 5.51562 6.40625C4.72917 6.40625 4.1224 6.71354 3.69531 7.32812C3.26823 7.9375 3.05208 8.83333 3.04688 10.0156V10.5703C3.04688 11.7318 3.26042 12.6328 3.6875 13.2734C4.11458 13.9141 4.72917 14.2344 5.53125 14.2344C6.31771 14.2344 6.92188 13.9271 7.34375 13.3125C7.76562 12.6927 7.97917 11.7917 7.98438 10.6094V10.0547ZM16.2734 11.8359H14.4062V16H12.0625V4.625H16.2891C17.6328 4.625 18.6693 4.92448 19.3984 5.52344C20.1276 6.1224 20.4922 6.96875 20.4922 8.0625C20.4922 8.83854 20.3229 9.48698 19.9844 10.0078C19.651 10.5234 19.1432 10.9349 18.4609 11.2422L20.9219 15.8906V16H18.4062L16.2734 11.8359ZM14.4062 9.9375H16.2969C16.8854 9.9375 17.3411 9.78906 17.6641 9.49219C17.987 9.1901 18.1484 8.77604 18.1484 8.25C18.1484 7.71354 17.9948 7.29167 17.6875 6.98438C17.3854 6.67708 16.9193 6.52344 16.2891 6.52344H14.4062V9.9375ZM22.2812 16V4.625H25.7812C26.7812 4.625 27.6745 4.85156 28.4609 5.30469C29.2526 5.7526 29.8698 6.39323 30.3125 7.22656C30.7552 8.05469 30.9766 8.9974 30.9766 10.0547V10.5781C30.9766 11.6354 30.7578 12.5755 30.3203 13.3984C29.888 14.2214 29.276 14.8594 28.4844 15.3125C27.6927 15.7656 26.7995 15.9948 25.8047 16H22.2812ZM24.625 6.52344V14.1172H25.7578C26.6745 14.1172 27.375 13.8177 27.8594 13.2188C28.3438 12.6198 28.5911 11.763 28.6016 10.6484V10.0469C28.6016 8.89062 28.362 8.01562 27.8828 7.42188C27.4036 6.82292 26.7031 6.52344 25.7812 6.52344H24.625ZM39.5312 11.0703H35.0312V14.1172H40.3125V16H32.6875V4.625H40.2969V6.52344H35.0312V9.23438H39.5312V11.0703ZM45.8984 11.8359H44.0312V16H41.6875V4.625H45.9141C47.2578 4.625 48.2943 4.92448 49.0234 5.52344C49.7526 6.1224 50.1172 6.96875 50.1172 8.0625C50.1172 8.83854 49.9479 9.48698 49.6094 10.0078C49.276 10.5234 48.7682 10.9349 48.0859 11.2422L50.5469 15.8906V16H48.0312L45.8984 11.8359ZM44.0312 9.9375H45.9219C46.5104 9.9375 46.9661 9.78906 47.2891 9.49219C47.612 9.1901 47.7734 8.77604 47.7734 8.25C47.7734 7.71354 47.6198 7.29167 47.3125 6.98438C47.0104 6.67708 46.5443 6.52344 45.9141 6.52344H44.0312V9.9375ZM65.2344 10.5703C65.2344 11.6901 65.0365 12.6719 64.6406 13.5156C64.2448 14.3594 63.6771 15.0104 62.9375 15.4688C62.2031 15.9271 61.3594 16.1562 60.4062 16.1562C59.4635 16.1562 58.6224 15.9297 57.8828 15.4766C57.1432 15.0234 56.5703 14.3776 56.1641 13.5391C55.7578 12.6953 55.5521 11.7266 55.5469 10.6328V10.0703C55.5469 8.95052 55.7474 7.96615 56.1484 7.11719C56.5547 6.26302 57.125 5.60938 57.8594 5.15625C58.599 4.69792 59.4427 4.46875 60.3906 4.46875C61.3385 4.46875 62.1797 4.69792 62.9141 5.15625C63.6536 5.60938 64.224 6.26302 64.625 7.11719C65.0312 7.96615 65.2344 8.94792 65.2344 10.0625V10.5703ZM62.8594 10.0547C62.8594 8.86198 62.6458 7.95573 62.2188 7.33594C61.7917 6.71615 61.1823 6.40625 60.3906 6.40625C59.6042 6.40625 58.9974 6.71354 58.5703 7.32812C58.1432 7.9375 57.9271 8.83333 57.9219 10.0156V10.5703C57.9219 11.7318 58.1354 12.6328 58.5625 13.2734C58.9896 13.9141 59.6042 14.2344 60.4062 14.2344C61.1927 14.2344 61.7969 13.9271 62.2188 13.3125C62.6406 12.6927 62.8542 11.7917 62.8594 10.6094V10.0547ZM76.1875 16H73.8438L69.2812 8.51562V16H66.9375V4.625H69.2812L73.8516 12.125V4.625H76.1875V16ZM80.5781 14.1172H85.5547V16H78.2344V4.625H80.5781V14.1172ZM89.3984 16H87.0547V4.625H89.3984V16ZM100.828 16H98.4844L93.9219 8.51562V16H91.5781V4.625H93.9219L98.4922 12.125V4.625H100.828V16ZM109.719 11.0703H105.219V14.1172H110.5V16H102.875V4.625H110.484V6.52344H105.219V9.23438H109.719V11.0703Z" fill="white"/>
<path d="M9.4668 32V23.4688H11.8516C12.5508 23.4688 13.1777 23.6289 13.7324 23.9492C14.2871 24.2656 14.7188 24.7207 15.0273 25.3145C15.3398 25.9082 15.4961 26.584 15.4961 27.3418V28.127C15.4961 28.8887 15.3418 29.5645 15.0332 30.1543C14.7246 30.7441 14.2891 31.1992 13.7266 31.5195C13.168 31.8398 12.5254 32 11.7988 32H9.4668ZM10.1875 24.084V31.3906H11.8047C12.7031 31.3906 13.4238 31.0938 13.9668 30.5C14.5098 29.9023 14.7812 29.0957 14.7812 28.0801V27.3301C14.7812 26.3496 14.5137 25.5645 13.9785 24.9746C13.4434 24.3848 12.7383 24.0879 11.8633 24.084H10.1875ZM19.6211 32.1172C19.082 32.1172 18.5938 31.9844 18.1562 31.7188C17.7227 31.4531 17.3848 31.084 17.1426 30.6113C16.9004 30.1348 16.7793 29.6016 16.7793 29.0117V28.7598C16.7793 28.1504 16.8965 27.6016 17.1309 27.1133C17.3691 26.625 17.6992 26.2422 18.1211 25.9648C18.543 25.6836 19 25.543 19.4922 25.543C20.2617 25.543 20.8711 25.8066 21.3203 26.334C21.7734 26.8574 22 27.5742 22 28.4844V28.877H17.4766V29.0117C17.4766 29.7305 17.6816 30.3301 18.0918 30.8105C18.5059 31.2871 19.0254 31.5254 19.6504 31.5254C20.0254 31.5254 20.3555 31.457 20.6406 31.3203C20.9297 31.1836 21.1914 30.9648 21.4258 30.6641L21.8652 30.998C21.3496 31.7441 20.6016 32.1172 19.6211 32.1172ZM19.4922 26.1406C18.9648 26.1406 18.5195 26.334 18.1562 26.7207C17.7969 27.1074 17.5781 27.627 17.5 28.2793H21.3027V28.2031C21.2832 27.5938 21.1094 27.0977 20.7812 26.7148C20.4531 26.332 20.0234 26.1406 19.4922 26.1406ZM24.1504 32H23.4473V23H24.1504V32ZM26.8457 32H26.1426V25.6602H26.8457V32ZM26.0195 23.8262C26.0195 23.6934 26.0625 23.582 26.1484 23.4922C26.2344 23.3984 26.3516 23.3516 26.5 23.3516C26.6484 23.3516 26.7656 23.3984 26.8516 23.4922C26.9414 23.582 26.9863 23.6934 26.9863 23.8262C26.9863 23.959 26.9414 24.0703 26.8516 24.1602C26.7656 24.25 26.6484 24.2949 26.5 24.2949C26.3516 24.2949 26.2344 24.25 26.1484 24.1602C26.0625 24.0703 26.0195 23.959 26.0195 23.8262ZM30.7305 31.0332L32.6582 25.6602H33.3789L31.0117 32H30.4434L28.0645 25.6602H28.7852L30.7305 31.0332ZM36.9062 32.1172C36.3672 32.1172 35.8789 31.9844 35.4414 31.7188C35.0078 31.4531 34.6699 31.084 34.4277 30.6113C34.1855 30.1348 34.0645 29.6016 34.0645 29.0117V28.7598C34.0645 28.1504 34.1816 27.6016 34.416 27.1133C34.6543 26.625 34.9844 26.2422 35.4062 25.9648C35.8281 25.6836 36.2852 25.543 36.7773 25.543C37.5469 25.543 38.1562 25.8066 38.6055 26.334C39.0586 26.8574 39.2852 27.5742 39.2852 28.4844V28.877H34.7617V29.0117C34.7617 29.7305 34.9668 30.3301 35.377 30.8105C35.791 31.2871 36.3105 31.5254 36.9355 31.5254C37.3105 31.5254 37.6406 31.457 37.9258 31.3203C38.2148 31.1836 38.4766 30.9648 38.7109 30.6641L39.1504 30.998C38.6348 31.7441 37.8867 32.1172 36.9062 32.1172ZM36.7773 26.1406C36.25 26.1406 35.8047 26.334 35.4414 26.7207C35.082 27.1074 34.8633 27.627 34.7852 28.2793H38.5879V28.2031C38.5684 27.5938 38.3945 27.0977 38.0664 26.7148C37.7383 26.332 37.3086 26.1406 36.7773 26.1406ZM43.5801 26.2578C43.4316 26.2305 43.2734 26.2168 43.1055 26.2168C42.668 26.2168 42.2969 26.3398 41.9922 26.5859C41.6914 26.8281 41.4766 27.1816 41.3477 27.6465V32H40.6504V25.6602H41.3359L41.3477 26.668C41.7188 25.918 42.3145 25.543 43.1348 25.543C43.3301 25.543 43.4844 25.5684 43.5977 25.6191L43.5801 26.2578ZM46.8086 30.9922L48.6602 25.6602H49.416L46.709 33.0781L46.5684 33.4062C46.2207 34.1758 45.6836 34.5605 44.957 34.5605C44.7891 34.5605 44.6094 34.5332 44.418 34.4785L44.4121 33.8984L44.7754 33.9336C45.1191 33.9336 45.3965 33.8477 45.6074 33.6758C45.8223 33.5078 46.0039 33.2168 46.1523 32.8027L46.4629 31.9473L44.0723 25.6602H44.8398L46.8086 30.9922ZM53.0371 28.7363C53.0371 28.127 53.1543 27.5781 53.3887 27.0898C53.627 26.6016 53.9609 26.2227 54.3906 25.9531C54.8242 25.6797 55.3145 25.543 55.8613 25.543C56.7051 25.543 57.3887 25.8398 57.9121 26.4336C58.4355 27.0234 58.6973 27.8066 58.6973 28.7832V28.9297C58.6973 29.543 58.5781 30.0957 58.3398 30.5879C58.1055 31.0762 57.7734 31.4531 57.3438 31.7188C56.9141 31.9844 56.4238 32.1172 55.873 32.1172C55.0332 32.1172 54.3496 31.8223 53.8223 31.2324C53.2988 30.6387 53.0371 29.8535 53.0371 28.877V28.7363ZM53.7402 28.9297C53.7402 29.6875 53.9355 30.3105 54.3262 30.7988C54.7207 31.2832 55.2363 31.5254 55.873 31.5254C56.5059 31.5254 57.0176 31.2832 57.4082 30.7988C57.8027 30.3105 58 29.668 58 28.8711V28.7363C58 28.252 57.9102 27.8086 57.7305 27.4062C57.5508 27.0039 57.2988 26.6934 56.9746 26.4746C56.6504 26.252 56.2793 26.1406 55.8613 26.1406C55.2363 26.1406 54.7266 26.3867 54.332 26.8789C53.9375 27.3672 53.7402 28.0078 53.7402 28.8008V28.9297ZM63.0801 26.2578C62.9316 26.2305 62.7734 26.2168 62.6055 26.2168C62.168 26.2168 61.7969 26.3398 61.4922 26.5859C61.1914 26.8281 60.9766 27.1816 60.8477 27.6465V32H60.1504V25.6602H60.8359L60.8477 26.668C61.2188 25.918 61.8145 25.543 62.6348 25.543C62.8301 25.543 62.9844 25.5684 63.0977 25.6191L63.0801 26.2578ZM67.9961 28.5254V32H67.2754V23.4688H70.1816C71.0684 23.4688 71.7676 23.6953 72.2793 24.1484C72.7949 24.6016 73.0527 25.2246 73.0527 26.0176C73.0527 26.8184 72.8047 27.4375 72.3086 27.875C71.8164 28.3086 71.1016 28.5254 70.1641 28.5254H67.9961ZM67.9961 27.916H70.1816C70.8809 27.916 71.4141 27.75 71.7812 27.418C72.1484 27.0859 72.332 26.623 72.332 26.0293C72.332 25.4395 72.1484 24.9707 71.7812 24.623C71.418 24.2715 70.9004 24.0918 70.2285 24.084H67.9961V27.916ZM75.291 32H74.5879V25.6602H75.291V32ZM74.4648 23.8262C74.4648 23.6934 74.5078 23.582 74.5938 23.4922C74.6797 23.3984 74.7969 23.3516 74.9453 23.3516C75.0938 23.3516 75.2109 23.3984 75.2969 23.4922C75.3867 23.582 75.4316 23.6934 75.4316 23.8262C75.4316 23.959 75.3867 24.0703 75.2969 24.1602C75.2109 24.25 75.0938 24.2949 74.9453 24.2949C74.7969 24.2949 74.6797 24.25 74.5938 24.1602C74.5078 24.0703 74.4648 23.959 74.4648 23.8262ZM79.5449 31.5254C80.0332 31.5254 80.4414 31.3887 80.7695 31.1152C81.1016 30.8379 81.2812 30.4805 81.3086 30.043H81.9824C81.9629 30.4297 81.8418 30.7832 81.6191 31.1035C81.3965 31.4199 81.0996 31.668 80.7285 31.8477C80.3613 32.0273 79.9668 32.1172 79.5449 32.1172C78.7129 32.1172 78.0527 31.8281 77.5645 31.25C77.0801 30.6719 76.8379 29.8945 76.8379 28.918V28.707C76.8379 28.082 76.9473 27.5293 77.166 27.0488C77.3848 26.5684 77.6973 26.1973 78.1035 25.9355C78.5137 25.6738 78.9922 25.543 79.5391 25.543C80.2344 25.543 80.8066 25.75 81.2559 26.1641C81.709 26.5781 81.9512 27.123 81.9824 27.7988H81.3086C81.2773 27.3027 81.0977 26.9023 80.7695 26.5977C80.4453 26.293 80.0352 26.1406 79.5391 26.1406C78.9062 26.1406 78.4141 26.3691 78.0625 26.8262C77.7148 27.2832 77.541 27.9238 77.541 28.748V28.9531C77.541 29.7617 77.7148 30.3926 78.0625 30.8457C78.4141 31.2988 78.9082 31.5254 79.5449 31.5254ZM84.8945 28.8066L84.0918 29.5801V32H83.3887V23H84.0918V28.7598L84.7539 28.0449L87.1797 25.6602H88.0645L85.375 28.332L88.2988 32H87.4609L84.8945 28.8066ZM93.3496 31.1973C92.9277 31.8105 92.2539 32.1172 91.3281 32.1172C90.6523 32.1172 90.1387 31.9219 89.7871 31.5312C89.4355 31.1367 89.2559 30.5547 89.248 29.7852V25.6602H89.9453V29.6973C89.9453 30.9043 90.4336 31.5078 91.4102 31.5078C92.4258 31.5078 93.0684 31.0879 93.3379 30.248V25.6602H94.041V32H93.3613L93.3496 31.1973ZM100.967 28.8945C100.967 29.8828 100.748 30.668 100.311 31.25C99.873 31.8281 99.2871 32.1172 98.5527 32.1172C97.6855 32.1172 97.0215 31.8125 96.5605 31.2031V34.4375H95.8633V25.6602H96.5137L96.5488 26.5566C97.0059 25.8809 97.668 25.543 98.5352 25.543C99.293 25.543 99.8867 25.8301 100.316 26.4043C100.75 26.9785 100.967 27.7754 100.967 28.7949V28.8945ZM100.264 28.7715C100.264 27.9629 100.098 27.3242 99.7656 26.8555C99.4336 26.3867 98.9707 26.1523 98.377 26.1523C97.9473 26.1523 97.5781 26.2559 97.2695 26.4629C96.9609 26.6699 96.7246 26.9707 96.5605 27.3652V30.4062C96.7285 30.7695 96.9688 31.0469 97.2812 31.2383C97.5938 31.4297 97.9629 31.5254 98.3887 31.5254C98.9785 31.5254 99.4375 31.291 99.7656 30.8223C100.098 30.3496 100.264 29.666 100.264 28.7715Z" fill="white"/>
</svg>
